<svg xmlns="http://www.w3.org/2000/svg" width="200" height="200" fill="none"><g clip-path="url(#a)"><circle cx="100" cy="100" r="99" fill="#dddfe4" stroke="#fff" stroke-width="2"/><path fill="#8997b3" fill-opacity=".9" fill-rule="evenodd" d="M166.7 160.7a87 87 0 0 1-66.6 31c-26.9 0-51-12.2-66.8-31.3 13.1-16.5 34-30.6 66.6-30.6a81 81 0 0 1 66.8 30.9" clip-rule="evenodd"/><path fill="#8997b3" fill-opacity=".9" d="M133 82.5c0 18-14.7 32.5-32.9 32.5a32.7 32.7 0 0 1-32.8-32.5C67.3 64.5 82 50 100 50a32.7 32.7 0 0 1 33 32.5"/></g><defs><clipPath id="a"><path fill="#fff" d="M0 0h200v200H0z"/></clipPath></defs></svg>